<svg xmlns="http://www.w3.org/2000/svg" xmlns:ev="http://www.w3.org/2001/xml-events" xmlns:xlink="http://www.w3.org/1999/xlink" baseProfile="full" height="300" version="1.1" width="800"><defs><style type="text/css"><![CDATA[.background path {fill: #808080; fill-opacity: 0}.background path:nth-child(odd) {fill-opacity: .1}.axes {font-size: 14px}.x-axis .tick .lab {font-weight: bold; dominant-baseline: hanging}.axes, .tree {font-size: 14px; text-anchor: middle}.axes line, .edge {stroke: black; fill: none}.y-axis .grid {stroke: #FAFAFA}.node > .sym {fill: black; stroke: none}.site > .sym {stroke: black}.mut text {fill: red; font-style: italic}.mut.extra text {fill: hotpink}.mut line {fill: none; stroke: none}.mut .sym {fill: none; stroke: red}.mut.extra .sym {stroke: hotpink}.node .mut .sym {stroke-width: 1.5px}.tree text, .tree-sequence text {dominant-baseline: central}.plotbox .lab.lft {text-anchor: end}.plotbox .lab.rgt {text-anchor: start}]]></style></defs><g class="tree-sequence"><g class="background"><path d="M20,0 l760,0 l0,238.2 l0,25 l0,5 l-760,0 l0,-5 l0,-25 l0,-238.2z"/></g><g class="axes"><g class="x-axis"><g transform="translate(400 300)"><text class="lab" text-anchor="middle" transform="translate(0 -11)">Genome position</text></g><line x1="20" x2="780" y1="263.2" y2="263.2"/><g class="ticks"><g class="tick" transform="translate(20 263.2)"><line x1="0" x2="0" y1="0" y2="5"/><g transform="translate(0 6)"><text class="lab">0</text></g></g></g><g class="site s0" transform="translate(243.855 263.2)"><line class="sym" x1="0" x2="0" y1="0" y2="-10"/><g class="mut m0"><polyline class="sym" points="2.5,-6.5 0,-1.5 -2.5,-6.5"/></g></g></g></g><g class="plotbox trees"><g class="tree t-1" transform="translate(20 0)"><g class="plotbox"><g class="c2 node n22 p1 root" transform="translate(354.688 26.8)"><g class="a22 c2 node n20 p3" transform="translate(214.688 176.522)"><g class="a20 c2 node n17 p5" transform="translate(110.625 11.9099)"><g class="a17 i4 leaf node n10 p5 sample" transform="translate(-30 6.16765)"><path class="edge" d="M 0 0 V -6.16765 H 30"/><rect class="sym" height="6" width="6" x="-3" y="-3"/><text class="lab" transform="translate(0 11)">A</text></g><g class="a17 i4 leaf node n11 p5 sample" transform="translate(30 6.16765)"><path class="edge" d="M 0 0 V -6.16765 H -30"/><rect class="sym" height="6" width="6" x="-3" y="-3"/><text class="lab" transform="translate(0 11)">A</text></g><path class="edge" d="M 0 0 V -11.9099 H -110.625"/><circle class="sym" cx="0" cy="0" r="3"/><text class="lab rgt" transform="translate(3 -7.0)"/></g><g class="a20 c2 node n19 p3" transform="translate(-110.625 4.67891)"><g class="a19 c2 node n13 p5" transform="translate(101.25 12.3353)"><g class="a13 i5 leaf node n8 p5 sample" transform="translate(-30 1.06339)"><path class="edge" d="M 0 0 V -1.06339 H 30"/><rect class="sym" height="6" width="6" x="-3" y="-3"/><text class="lab" transform="translate(0 11)">A</text></g><g class="a13 i5 leaf node n9 p5 sample" transform="translate(30 1.06339)"><path class="edge" d="M 0 0 V -1.06339 H -30"/><rect class="sym" height="6" width="6" x="-3" y="-3"/><text class="lab" transform="translate(0 11)">A</text></g><path class="edge" d="M 0 0 V -12.3353 H -101.25"/><circle class="sym" cx="0" cy="0" r="3"/><text class="lab rgt" transform="translate(3 -7.0)"/></g><g class="a19 c2 node n18 p4" transform="translate(-101.25 4.89158)"><g class="a18 i3 leaf node n4 p4 sample" transform="translate(-67.5 8.5071)"><path class="edge" d="M 0 0 V -8.5071 H 67.5"/><rect class="sym" height="6" width="6" x="-3" y="-3"/><text class="lab" transform="translate(0 11)">B</text></g><g class="a18 c2 m0 node n15 p4 s0" transform="translate(67.5 2.97749)"><g class="a15 i2 leaf node n7 p4 sample" transform="translate(45 5.52962)"><path class="edge" d="M 0 0 V -5.52962 H -45"/><rect class="sym" height="6" width="6" x="-3" y="-3"/><text class="lab" transform="translate(0 11)">B</text></g><g class="a15 c2 node n14 p4" transform="translate(-45 2.12678)"><g class="a14 i3 leaf node n5 p4 sample" transform="translate(-30 3.40284)"><path class="edge" d="M 0 0 V -3.40284 H 30"/><rect class="sym" height="6" width="6" x="-3" y="-3"/><text class="lab" transform="translate(0 11)">B</text></g><g class="a14 i2 leaf node n6 p4 sample" transform="translate(30 3.40284)"><path class="edge" d="M 0 0 V -3.40284 H -30"/><rect class="sym" height="6" width="6" x="-3" y="-3"/><text class="lab" transform="translate(0 11)">B</text></g><path class="edge" d="M 0 0 V -2.12678 H 45"/><circle class="sym" cx="0" cy="0" r="3"/><text class="lab lft" transform="translate(-3 -7.0)"/></g><path class="edge" d="M 0 0 V -2.97749 H -67.5"/><g class="mut m0 s0" transform="translate(0 0.0)"><line x1="0" x2="0" y1="0" y2="-0.0"/><path class="sym" d="M -3,-3 l 6,6 M -3,3 l 6,-6"/><text class="lab rgt" transform="translate(5 0)">0</text></g><circle class="sym" cx="0" cy="0" r="3"/><text class="lab rgt" transform="translate(3 -7.0)"/></g><path class="edge" d="M 0 0 V -4.89158 H 101.25"/><circle class="sym" cx="0" cy="0" r="3"/><text class="lab lft" transform="translate(-3 -7.0)"/></g><path class="edge" d="M 0 0 V -4.67891 H 110.625"/><circle class="sym" cx="0" cy="0" r="3"/><text class="lab lft" transform="translate(-3 -7.0)"/></g><path class="edge" d="M 0 0 V -176.522 H -214.688"/><circle class="sym" cx="0" cy="0" r="3"/><text class="lab rgt" transform="translate(3 -7.0)"/></g><g class="a22 c2 node n21 p2" transform="translate(-214.688 161.848)"><g class="a21 c2 node n12 p2" transform="translate(60 32.1143)"><g class="a12 i1 leaf node n2 p2 sample" transform="translate(-30 0.638033)"><path class="edge" d="M 0 0 V -0.638033 H 30"/><rect class="sym" height="6" width="6" x="-3" y="-3"/><text class="lab" transform="translate(0 11)">C</text></g><g class="a12 i1 leaf node n3 p2 sample" transform="translate(30 0.638033)"><path class="edge" d="M 0 0 V -0.638033 H -30"/><rect class="sym" height="6" width="6" x="-3" y="-3"/><text class="lab" transform="translate(0 11)">C</text></g><path class="edge" d="M 0 0 V -32.1143 H -60"/><circle class="sym" cx="0" cy="0" r="3"/><text class="lab rgt" transform="translate(3 -7.0)"/></g><g class="a21 c2 node n16 p2" transform="translate(-60 27.0101)"><g class="a16 i0 leaf node n0 p2 sample" transform="translate(-30 5.7423)"><path class="edge" d="M 0 0 V -5.7423 H 30"/><rect class="sym" height="6" width="6" x="-3" y="-3"/><text class="lab" transform="translate(0 11)">C</text></g><g class="a16 i0 leaf node n1 p2 sample" transform="translate(30 5.7423)"><path class="edge" d="M 0 0 V -5.7423 H -30"/><rect class="sym" height="6" width="6" x="-3" y="-3"/><text class="lab" transform="translate(0 11)">C</text></g><path class="edge" d="M 0 0 V -27.0101 H 60"/><circle class="sym" cx="0" cy="0" r="3"/><text class="lab lft" transform="translate(-3 -7.0)"/></g><path class="edge" d="M 0 0 V -161.848 H 214.688"/><circle class="sym" cx="0" cy="0" r="3"/><text class="lab lft" transform="translate(-3 -7.0)"/></g><circle class="sym" cx="0" cy="0" r="3"/><text class="lab" transform="translate(0 -11)"/></g></g></g></g></g></svg>