<?xml version="1.0" standalone="no"?>
<!DOCTYPE svg PUBLIC "-//W3C//DTD SVG 20010904//EN"
 "http://www.w3.org/TR/2001/REC-SVG-20010904/DTD/svg10.dtd">
<svg version="1.0" xmlns="http://www.w3.org/2000/svg"
 width="550.000000pt" height="550.000000pt" viewBox="0 0 550.000000 550.000000"
 preserveAspectRatio="xMidYMid meet">
<metadata>
Created by potrace 1.14, written by Peter Selinger 2001-2017
</metadata>
<g transform="translate(0.000000,550.000000) scale(0.100000,-0.100000)"
fill="#000000" stroke="none">
<path d="M2370 4010 l0 -290 -975 0 -975 0 0 -955 0 -955 145 1 145 1 0 809 0
809 1543 0 1544 0 -1 -290 0 -290 -503 0 -503 0 2 -432 3 -432 140 0 140 0 2
234 c2 129 3 260 3 290 l0 55 855 -1 c470 0 857 -3 860 -6 3 -3 6 -173 6 -377
l1 -372 144 2 144 1 0 519 0 519 -503 0 -502 0 0 435 0 435 -712 0 -713 0 0
290 0 290 -145 0 -145 0 0 -290z"/>
</g>
</svg>
